<?xml version="1.0" encoding="UTF-8" standalone="no"?>
<!-- Created with Inkscape (http://www.inkscape.org/) -->

<svg
   width="402.46976mm"
   height="129.21082mm"
   viewBox="0 0 402.46976 129.21082"
   version="1.1"
   id="svg1"
   inkscape:version="1.4.3 (0d15f75, 2025-12-25)"
   sodipodi:docname="vikivestlus_must.svg"
   xmlns:inkscape="http://www.inkscape.org/namespaces/inkscape"
   xmlns:sodipodi="http://sodipodi.sourceforge.net/DTD/sodipodi-0.dtd"
   xmlns:xlink="http://www.w3.org/1999/xlink"
   xmlns="http://www.w3.org/2000/svg"
   xmlns:svg="http://www.w3.org/2000/svg">
  <sodipodi:namedview
     id="namedview1"
     pagecolor="#ffffff"
     bordercolor="#000000"
     borderopacity="0.25"
     inkscape:showpageshadow="2"
     inkscape:pageopacity="0.0"
     inkscape:pagecheckerboard="0"
     inkscape:deskcolor="#d1d1d1"
     inkscape:document-units="mm"
     inkscape:zoom="0.25417602"
     inkscape:cx="328.5125"
     inkscape:cy="116.0613"
     inkscape:window-width="1920"
     inkscape:window-height="1046"
     inkscape:window-x="-11"
     inkscape:window-y="-11"
     inkscape:window-maximized="1"
     inkscape:current-layer="layer2"
     showguides="false" />
  <defs
     id="defs1">
    <linearGradient
       id="linearGradient4"
       inkscape:collect="always">
      <stop
         style="stop-color:#18ff74;stop-opacity:1;"
         offset="0"
         id="stop3" />
      <stop
         style="stop-color:#36c3ff;stop-opacity:1;"
         offset="1"
         id="stop4" />
    </linearGradient>
    <linearGradient
       id="linearGradient1"
       inkscape:collect="always">
      <stop
         style="stop-color:#ffee18;stop-opacity:1;"
         offset="0"
         id="stop1" />
      <stop
         style="stop-color:#ff3636;stop-opacity:1;"
         offset="1"
         id="stop2" />
    </linearGradient>
    <linearGradient
       inkscape:collect="always"
       xlink:href="#linearGradient1"
       id="linearGradient2"
       x1="92.973862"
       y1="137.06604"
       x2="145.55978"
       y2="137.06604"
       gradientUnits="userSpaceOnUse"
       gradientTransform="translate(-46.846992,-5.7530819)" />
    <linearGradient
       inkscape:collect="always"
       xlink:href="#linearGradient4"
       id="linearGradient3"
       gradientUnits="userSpaceOnUse"
       gradientTransform="translate(-21.3626,7.0780057)"
       x1="92.973862"
       y1="137.06604"
       x2="145.55978"
       y2="137.06604" />
    <filter
       inkscape:collect="always"
       style="color-interpolation-filters:sRGB"
       id="filter5"
       x="-0.14315347"
       y="-0.12295818"
       width="1.2863069"
       height="1.2459164">
      <feGaussianBlur
         inkscape:collect="always"
         stdDeviation="2.8693578"
         id="feGaussianBlur5" />
    </filter>
    <filter
       inkscape:collect="always"
       style="color-interpolation-filters:sRGB"
       id="filter6"
       x="-0.14315346"
       y="-0.12295818"
       width="1.2863069"
       height="1.2459164">
      <feGaussianBlur
         inkscape:collect="always"
         stdDeviation="2.8693578"
         id="feGaussianBlur6" />
    </filter>
    <linearGradient
       inkscape:collect="always"
       xlink:href="#linearGradient1"
       id="linearGradient5"
       gradientUnits="userSpaceOnUse"
       gradientTransform="translate(-21.3626,7.0780057)"
       x1="92.973862"
       y1="137.06604"
       x2="145.55978"
       y2="137.06604" />
  </defs>
  <g
     inkscape:groupmode="layer"
     id="layer2"
     inkscape:label="Kiht 2"
     transform="translate(-35.470228,-107.9862)">
    <text
       xml:space="preserve"
       style="font-style:normal;font-variant:normal;font-weight:normal;font-stretch:normal;font-size:109.004px;font-family:Serif;-inkscape-font-specification:Serif;writing-mode:lr-tb;direction:ltr;fill:url(#linearGradient2);fill-rule:evenodd;stroke:#000000;stroke-width:0;stroke-miterlimit:2.1"
       x="45.222054"
       y="154.9447"
       id="text1"
       transform="matrix(0.91540315,-2.7534521e-4,3.2856938e-4,1.0924148,0,0)"><tspan
         sodipodi:role="line"
         id="tspan1"
         style="font-style:normal;font-variant:normal;font-weight:bold;font-stretch:normal;font-family:Serif;-inkscape-font-specification:'Serif Bold';fill:url(#linearGradient2);stroke-width:0"
         x="45.222054"
         y="154.9447">v</tspan></text>
    <text
       xml:space="preserve"
       style="font-style:normal;font-variant:normal;font-weight:normal;font-stretch:normal;font-size:109.004px;font-family:Serif;-inkscape-font-specification:Serif;writing-mode:lr-tb;direction:ltr;fill:url(#linearGradient3);fill-rule:evenodd;stroke:#000000;stroke-width:0;stroke-miterlimit:2.1"
       x="70.706451"
       y="167.77582"
       id="text1-4"
       transform="matrix(0.91540312,-2.753452e-4,3.2856937e-4,1.0924148,0,0)"><tspan
         sodipodi:role="line"
         id="tspan1-5"
         style="font-style:normal;font-variant:normal;font-weight:bold;font-stretch:normal;font-family:Serif;-inkscape-font-specification:'Serif Bold';fill:url(#linearGradient3);stroke-width:0"
         x="70.706451"
         y="167.77582">v</tspan></text>
    <use
       x="0"
       y="0"
       xlink:href="#text1"
       id="use4"
       style="mix-blend-mode:normal;filter:url(#filter6)" />
    <use
       x="0"
       y="0"
       xlink:href="#text1-4"
       id="use5"
       style="mix-blend-mode:normal;filter:url(#filter5)" />
    <circle
       id="path6"
       style="fill:#000000;stroke:#000000;stroke-width:0.264583"
       cx="154.9187"
       cy="230.81775"
       r="0" />
    <path
       id="text1-0"
       style="font-style:normal;font-variant:normal;font-weight:normal;font-stretch:normal;font-size:25.4px;font-family:Serif;-inkscape-font-specification:Serif;text-align:start;writing-mode:lr-tb;direction:ltr;text-anchor:start;fill:#000000;stroke:#000000;stroke-width:2.91441;stroke-dasharray:none"
       d="m 165.26168,175.17042 c -1.01924,0 -1.88439,0.36745 -2.59545,1.1024 -0.68739,0.71044 -1.03108,1.58011 -1.03108,2.609 0,1.02892 0.35553,1.91082 1.06663,2.64577 0.71106,0.73494 1.56437,1.1024 2.5599,1.1024 0.9955,0 1.83694,-0.36746 2.52433,-1.1024 0.71109,-0.73495 1.06662,-1.61685 1.06662,-2.64577 0,-1.02889 -0.35553,-1.89856 -1.06662,-2.609 -0.68739,-0.73495 -1.52883,-1.1024 -2.52433,-1.1024 z m 19.94588,0 -9.67074,4.11563 0.60442,1.28613 c 0.99553,-0.41647 1.74217,-0.6247 2.23992,-0.6247 0.61629,0 1.11404,0.17155 1.49328,0.51445 0.37924,0.31848 0.65184,0.91867 0.81774,1.8006 0.16598,0.85743 0.24883,3.2337 0.24883,7.12886 v 30.64681 c 0,1.98431 -0.17774,3.38069 -0.53333,4.18914 -0.26059,0.56342 -0.63997,0.97989 -1.13772,1.24936 -0.8296,0.41646 -2.07399,0.6247 -3.7332,0.6247 v 1.3229 h 16.56827 v -1.3229 c -1.82513,-0.0237 -3.01027,-0.1837 -3.55543,-0.47771 -0.54517,-0.29392 -0.97182,-0.78392 -1.27994,-1.46986 -0.28438,-0.68594 -0.42666,-2.11906 -0.42666,-4.29936 v -11.17103 l 9.99073,13.19211 c 0.94812,1.24936 1.42216,2.15579 1.42216,2.71925 0,0.46544 -0.16598,0.83292 -0.49775,1.1024 -0.30815,0.24503 -0.91257,0.37972 -1.81327,0.4042 v 1.3229 h 15.82161 v -1.3229 c -1.46957,0 -2.50065,-0.12237 -3.09321,-0.36746 -0.85331,-0.34296 -1.84881,-1.09017 -2.98656,-2.24155 -0.80589,-0.80842 -2.37027,-2.71927 -4.69315,-5.7325 l -8.35523,-10.91377 8.35523,-7.97405 c 1.5407,-1.44539 2.95101,-2.44981 4.23095,-3.01323 1.30365,-0.56345 2.92731,-0.86969 4.87092,-0.91867 v -1.17591 h -14.15056 v 1.17591 c 0.9007,0.0489 1.54067,0.25718 1.91994,0.62469 0.40295,0.34296 0.60442,0.75942 0.60442,1.24939 0,0.29392 -0.0949,0.58793 -0.28438,0.88191 -0.28438,0.44096 -1.30367,1.49436 -3.05765,3.16021 l -8.28414,7.79033 v -33.47628 z m 36.69192,0 c -1.01921,0 -1.88436,0.36745 -2.59545,1.1024 -0.68738,0.71044 -1.03108,1.58011 -1.03108,2.609 0,1.02892 0.35554,1.91082 1.06663,2.64577 0.71109,0.73494 1.56437,1.1024 2.5599,1.1024 0.99553,0 1.83697,-0.36746 2.52436,-1.1024 0.71106,-0.73495 1.06662,-1.61685 1.06662,-2.64577 0,-1.02889 -0.35556,-1.89856 -1.06662,-2.609 -0.68739,-0.73495 -1.52883,-1.1024 -2.52436,-1.1024 z m 138.83908,0 -9.7063,4.11563 0.60443,1.28613 c 0.94811,-0.39196 1.7303,-0.58796 2.34659,-0.58796 0.56884,0 1.03105,0.1594 1.38661,0.47771 0.37924,0.31848 0.6518,0.91867 0.81773,1.8006 0.16598,0.85743 0.24883,3.18472 0.24883,6.98187 v 30.5733 c 0,2.08232 -0.15394,3.49097 -0.4622,4.22588 -0.30814,0.73495 -0.7348,1.26166 -1.27997,1.58011 -0.54516,0.31848 -1.56437,0.47771 -3.05765,0.47771 v 1.3229 h 15.96382 v -1.3229 c -1.68289,0 -2.83247,-0.17156 -3.44873,-0.51445 -0.61629,-0.36746 -1.0785,-0.89417 -1.38661,-1.58011 -0.28438,-0.68594 -0.42666,-2.08232 -0.42666,-4.18914 v -44.64728 z m -21.47471,7.53308 c -0.97183,2.47428 -1.7303,4.17687 -2.27547,5.10778 -1.06663,1.76384 -2.28734,3.29497 -3.66208,4.59337 -1.35106,1.27386 -2.67841,2.1803 -3.98209,2.71925 v 1.21265 h 5.15536 v 22.63599 c 0,2.42527 0.24883,4.22588 0.74664,5.40176 0.49775,1.15141 1.2681,2.04558 2.31101,2.68254 1.04295,0.61243 2.10957,0.91864 3.19991,0.91864 1.61176,0 3.17616,-0.60019 4.69312,-1.80058 1.51699,-1.22488 2.69029,-3.03773 3.51989,-5.43852 h -1.38661 c -0.40295,0.97991 -0.97182,1.72709 -1.70662,2.24157 -0.73477,0.48994 -1.49328,0.73491 -2.27547,0.73491 -0.94811,0 -1.7303,-0.37972 -2.34656,-1.13914 -0.59258,-0.75945 -0.88886,-2.2293 -0.88886,-4.40961 v -21.82756 h 7.60859 v -2.57229 h -7.60859 V 182.7035 Z m -53.5446,10.03187 c -4.31392,0 -7.9049,1.61684 -10.77292,4.85057 -2.84434,3.20919 -4.2665,7.69231 -4.2665,13.44929 0,5.31604 1.38661,9.55416 4.15983,12.71437 2.79693,3.13575 6.15089,4.70359 10.06182,4.70359 3.60283,0 6.60123,-1.37188 8.99523,-4.11563 2.39398,-2.76826 3.83984,-5.83049 4.3376,-9.18667 l -1.10218,-0.73495 c -1.06662,2.93975 -2.39397,5.02207 -3.98206,6.24696 -1.5644,1.20038 -3.41321,1.80057 -5.54646,1.80057 -3.19988,0 -5.98496,-1.42085 -8.35523,-4.26262 -2.37027,-2.84173 -3.54357,-6.76139 -3.51986,-11.75896 h 22.50579 c 0,-4.16463 -1.1733,-7.48407 -3.51986,-9.95835 -2.34657,-2.49878 -5.34499,-3.74817 -8.9952,-3.74817 z m -119.07096,0.0367 -9.81296,4.11563 0.49775,1.3229 c 0.94811,-0.36748 1.75401,-0.55121 2.41768,-0.55121 0.61629,0 1.1022,0.15911 1.45774,0.4777 0.35553,0.29392 0.61626,0.83293 0.78218,1.61685 0.21329,1.07793 0.31999,3.44196 0.31999,7.09215 v 12.97158 c 0,2.08232 -0.16599,3.49097 -0.49775,4.22588 -0.30815,0.73495 -0.7348,1.26166 -1.27997,1.58011 -0.54514,0.31848 -1.61176,0.47771 -3.19987,0.47771 v 1.3229 h 15.82163 v -1.3229 c -1.5407,0 -2.60732,-0.17156 -3.19988,-0.51445 -0.56887,-0.34295 -1.00736,-0.85743 -1.31551,-1.54337 -0.28438,-0.71044 -0.42666,-2.11906 -0.42666,-4.22588 v -27.0456 z m 56.6378,0 -9.81296,4.11563 0.49778,1.3229 c 0.94811,-0.36748 1.75401,-0.55121 2.41768,-0.55121 0.61626,0 1.10218,0.15911 1.45771,0.4777 0.35556,0.29392 0.61629,0.83293 0.78219,1.61685 0.21328,1.07793 0.32001,3.44196 0.32001,7.09215 v 12.97158 c 0,2.08232 -0.16599,3.49097 -0.49778,4.22588 -0.30812,0.73495 -0.73477,1.26166 -1.27994,1.58011 -0.54517,0.31848 -1.61179,0.47771 -3.19987,0.47771 v 1.3229 h 15.8216 v -1.3229 c -1.54067,0 -2.60729,-0.17156 -3.19987,-0.51445 -0.56888,-0.34295 -1.00737,-0.85743 -1.31552,-1.54337 -0.28438,-0.71044 -0.42665,-2.11906 -0.42665,-4.22588 v -27.0456 z m 90.44983,0 c -2.91543,0 -5.29757,0.93091 -7.14638,2.79276 -1.82511,1.86182 -2.73767,4.17688 -2.73767,6.94513 0,2.13133 0.53332,3.89516 1.59995,5.29154 1.06662,1.42086 3.31838,3.01323 6.75528,4.77707 3.43692,1.76383 5.72423,3.22146 6.86197,4.37286 1.16143,1.15141 1.74215,2.57229 1.74215,4.26262 0,1.39638 -0.52146,2.5968 -1.56438,3.60119 -1.01924,0.97991 -2.34659,1.46988 -3.98209,1.46988 -2.32285,0 -4.42056,-0.86969 -6.29308,-2.60903 -1.87252,-1.73933 -3.14061,-4.32386 -3.80429,-7.75355 h -1.1733 v 12.01617 h 1.1733 c 0.30814,-0.63693 0.73477,-0.95541 1.27994,-0.95541 0.49778,0 1.13775,0.12237 1.91993,0.36746 2.55991,0.73494 4.83538,1.1024 6.82641,1.1024 2.77321,0 5.27386,-0.93091 7.50192,-2.79273 2.25178,-1.88635 3.37766,-4.36063 3.37766,-7.42287 0,-3.96864 -2.40584,-7.16559 -7.21751,-9.59089 l -5.1909,-2.60903 c -2.25176,-1.12688 -3.74504,-2.19254 -4.47984,-3.19696 -0.75848,-0.97992 -1.13772,-2.1558 -1.13772,-3.52767 0,-1.10241 0.50962,-2.10683 1.52883,-3.01326 1.01921,-0.90641 2.35843,-1.35961 4.0176,-1.35961 2.18067,0 3.97023,0.6492 5.3687,1.94756 1.42216,1.2984 2.58362,3.74818 3.48431,7.34936 h 1.1733 v -11.46499 h -1.1733 c -0.28438,0.58796 -0.53332,0.96765 -0.74664,1.13915 -0.21328,0.17155 -0.50961,0.25718 -0.88885,0.25718 -0.40295,0 -1.20885,-0.1837 -2.41769,-0.55122 -1.8251,-0.56345 -3.37764,-0.84516 -4.65761,-0.84516 z m 105.20484,0 c -2.91543,0 -5.29757,0.93091 -7.14639,2.79276 -1.82513,1.86182 -2.73767,4.17688 -2.73767,6.94513 0,2.13133 0.5333,3.89516 1.59993,5.29154 1.06662,1.42086 3.31838,3.01323 6.7553,4.77707 3.4369,1.76383 5.72424,3.22146 6.86195,4.37286 1.16143,1.15141 1.74217,2.57229 1.74217,4.26262 0,1.39638 -0.52148,2.5968 -1.5644,3.60119 -1.01921,0.97991 -2.34656,1.46988 -3.98206,1.46988 -2.32288,0 -4.42056,-0.86969 -6.29311,-2.60903 -1.87252,-1.73933 -3.14061,-4.32386 -3.80429,-7.75355 h -1.17327 v 12.01617 h 1.17327 c 0.30814,-0.63693 0.7348,-0.95541 1.27997,-0.95541 0.49775,0 1.13772,0.12237 1.91993,0.36746 2.55988,0.73494 4.83535,1.1024 6.8264,1.1024 2.77322,0 5.27387,-0.93091 7.50192,-2.79273 2.25176,-1.88635 3.37764,-4.36063 3.37764,-7.42287 0,-3.96864 -2.40581,-7.16559 -7.21748,-9.59089 l -5.19093,-2.60903 c -2.25176,-1.12688 -3.74504,-2.19254 -4.47981,-3.19696 -0.75848,-0.97992 -1.13775,-2.1558 -1.13775,-3.52767 0,-1.10241 0.50962,-2.10683 1.52883,-3.01326 1.01923,-0.90641 2.35843,-1.35961 4.01763,-1.35961 2.18067,0 3.97023,0.6492 5.36867,1.94756 1.42219,1.2984 2.58362,3.74818 3.48431,7.34936 h 1.1733 v -11.46499 h -1.1733 c -0.28438,0.58796 -0.53329,0.96765 -0.74664,1.13915 -0.21328,0.17155 -0.50959,0.25718 -0.88883,0.25718 -0.40294,0 -1.20884,-0.1837 -2.41768,-0.55122 -1.82513,-0.56345 -3.37767,-0.84516 -4.65761,-0.84516 z m -300.04174,0.99216 v 1.35964 c 1.18513,0.19584 1.97919,0.40419 2.38214,0.62469 0.73477,0.39196 1.33919,0.88191 1.81326,1.46986 0.47404,0.56345 0.97179,1.50663 1.49328,2.8295 l 11.6262,28.40524 h 1.45773 l 11.55511,-28.88295 c 0.66367,-1.71483 1.41031,-2.93974 2.23992,-3.67466 0.47404,-0.41646 1.32735,-0.6737 2.5599,-0.77168 v -1.35964 h -10.63073 v 1.35964 c 1.23255,0 2.05032,0.0735 2.45327,0.22044 0.40294,0.12236 0.73477,0.36748 0.9955,0.73494 0.18949,0.22044 0.28438,0.50221 0.28438,0.84516 0,0.71045 -0.27263,1.7516 -0.81774,3.12348 l -7.60859,19.29205 -7.57304,-18.59384 c -0.49778,-1.17592 -0.74664,-2.19257 -0.74664,-3.05 0,-0.78392 0.23708,-1.40862 0.71106,-1.87409 0.49778,-0.46544 1.20885,-0.69817 2.13325,-0.69817 h 0.99553 v -1.35964 z m 113.27563,0 v 1.35964 c 1.18513,0.19584 1.97916,0.40419 2.38211,0.62469 0.7348,0.39196 1.33922,0.88191 1.81326,1.46986 0.47407,0.56345 0.97183,1.50663 1.49328,2.8295 l 11.62623,28.40524 h 1.45771 l 11.55513,-28.88295 c 0.66367,-1.71483 1.41032,-2.93974 2.23989,-3.67466 0.47407,-0.41646 1.32735,-0.6737 2.5599,-0.77168 v -1.35964 h -10.63069 v 1.35964 c 1.23255,0 2.05028,0.0735 2.45323,0.22044 0.40295,0.12236 0.7348,0.36748 0.99553,0.73494 0.18978,0.22044 0.28438,0.50221 0.28438,0.84516 0,0.71045 -0.27263,1.7516 -0.81776,3.12348 l -7.6086,19.29205 -7.57304,-18.59384 c -0.49775,-1.17592 -0.74664,-2.19257 -0.74664,-3.05 0,-0.78392 0.23708,-1.40862 0.71109,-1.87409 0.49775,-0.46544 1.20885,-0.69817 2.13325,-0.69817 h 0.99553 v -1.35964 z m 136.99026,0 v 1.35964 c 1.70659,-0.0237 2.87989,0.13481 3.51986,0.4777 0.66368,0.31848 1.16143,0.78392 1.49328,1.39638 0.33182,0.61243 0.49775,1.71483 0.49775,3.30721 v 15.02943 c 0,3.13571 0.26059,5.56101 0.78219,7.27584 0.52146,1.71486 1.44586,3.12348 2.77324,4.22588 1.35104,1.0779 2.93915,1.61685 4.76425,1.61685 1.6355,0 3.18804,-0.4042 4.65761,-1.21262 1.46957,-0.80843 3.60282,-2.78053 6.39975,-5.91624 v 7.12886 h 1.59992 l 9.74187,-4.15237 -0.49778,-1.28613 c -0.92441,0.41646 -1.75401,0.62469 -2.48878,0.62469 -0.52146,0 -0.98366,-0.17155 -1.38661,-0.51447 -0.37924,-0.34296 -0.66368,-0.94315 -0.85331,-1.80058 -0.16599,-0.88193 -0.24884,-3.27046 -0.24884,-7.16563 v -20.39441 h -11.09293 v 1.35964 c 2.13325,0.0489 3.53173,0.41646 4.19541,1.1024 0.68738,0.66143 1.03108,1.94756 1.03108,3.85842 v 19.07155 c -1.77772,1.86185 -3.31839,3.12347 -4.62206,3.78491 -1.27994,0.66146 -2.42953,0.99218 -3.44874,0.99218 -1.49328,0 -2.77325,-0.48997 -3.83987,-1.46989 -1.04292,-0.97991 -1.56437,-3.03773 -1.56437,-6.17344 v -22.52577 z m -85.43669,1.58011 c 1.27994,0 2.50062,0.39196 3.66207,1.17591 1.18514,0.78392 2.074,1.86182 2.66655,3.23369 0.37924,0.88194 0.62813,2.4008 0.74664,4.5566 h -15.07496 c 0.26058,-2.81723 1.16143,-5.0098 2.70212,-6.57764 1.56438,-1.59238 3.33023,-2.38856 5.29758,-2.38856 z" />
  </g>
  <g
     inkscape:label="Kiht 1"
     inkscape:groupmode="layer"
     id="layer1"
     transform="translate(-35.470228,-107.9862)" />
</svg>
